<svg width="672" height="1928" viewBox="0 0 672 1928" fill="none" xmlns="http://www.w3.org/2000/svg">
<path opacity="0.0144928" d="M422.133 672.185C411.922 673.079 403.535 680.623 401.568 690.683L339.072 1010.24C337.908 1016.19 339.141 1022.35 342.501 1027.4L600.845 1415.35C603.487 1419.32 607.297 1422.37 611.748 1424.08L992.863 1570.33C1000.93 1573.43 1010.06 1571.74 1016.48 1565.96L1227.6 1376.08C1234.03 1370.3 1236.67 1361.4 1234.44 1353.05L1129.24 958.621C1128.01 954.015 1125.38 949.904 1121.71 946.858L763.203 648.999C758.541 645.125 752.537 643.248 746.499 643.776L422.133 672.185Z" stroke="url(#paint0_linear_1222_301)" stroke-width="4"/>
<path opacity="0.0289855" d="M465.859 645.598C455.643 645.972 446.9 653.044 444.4 662.956L365.332 976.411C363.847 982.298 364.75 988.533 367.843 993.756L603.155 1391.12C605.592 1395.24 609.25 1398.49 613.621 1400.43L983.57 1564.51C991.461 1568.01 1000.65 1566.79 1007.36 1561.36L1226.81 1383.85C1233.52 1378.42 1236.63 1369.69 1234.85 1361.24L1151.7 965.174C1150.72 960.495 1148.3 956.238 1144.78 952.995L805.354 639.849C800.892 635.733 794.983 633.547 788.916 633.769L465.859 645.598Z" stroke="url(#paint1_linear_1222_301)" stroke-width="4"/>
<path opacity="0.0434783" d="M510.099 620.527C499.904 620.382 490.831 626.967 487.808 636.704L392.635 943.207C390.832 949.013 391.401 955.297 394.218 960.684L606.227 1366.13C608.45 1370.38 611.946 1373.83 616.225 1376L974.195 1557.13C981.888 1561.02 991.112 1560.28 998.089 1555.22L1225.16 1390.43C1232.14 1385.36 1235.7 1376.82 1234.38 1368.3L1173.15 971.813C1172.42 967.073 1170.23 962.68 1166.88 959.25L847.131 631.989C842.882 627.64 837.085 625.151 831.005 625.065L510.099 620.527Z" stroke="url(#paint2_linear_1222_301)" stroke-width="4"/>
<path opacity="0.057971" d="M554.761 596.984C544.615 596.325 535.239 602.406 531.704 611.94L420.936 910.672C418.819 916.381 419.053 922.697 421.585 928.235L610.098 1340.42C612.099 1344.8 615.421 1348.43 619.597 1350.82L964.825 1548.21C972.3 1552.48 981.536 1552.22 988.759 1547.54L1222.73 1395.77C1229.95 1391.09 1233.95 1382.76 1233.1 1374.19L1193.61 978.483C1193.13 973.696 1191.17 969.179 1187.99 965.568L888.47 625.386C884.447 620.816 878.775 618.027 872.698 617.633L554.761 596.984Z" stroke="url(#paint3_linear_1222_301)" stroke-width="4"/>
<path opacity="0.0724638" d="M599.759 574.98C589.688 573.811 580.039 579.375 576.006 588.677L450.194 878.855C447.768 884.45 447.664 890.779 449.903 896.451L614.799 1314.04C616.571 1318.53 619.712 1322.34 623.774 1324.95L955.547 1537.76C962.784 1542.4 972.006 1542.62 979.454 1538.33L1219.59 1399.86C1227.03 1395.56 1231.46 1387.47 1231.07 1378.88L1213.07 985.132C1212.85 980.311 1211.12 975.68 1208.12 971.898L929.303 620.006C925.515 615.227 919.985 612.147 913.928 611.444L599.759 574.98Z" stroke="url(#paint4_linear_1222_301)" stroke-width="4"/>
<path opacity="0.0869565" d="M614.803 574.109C604.832 572.436 594.938 577.471 590.421 586.516L450.157 867.388C447.429 872.852 446.985 879.178 448.925 884.97L590.16 1306.62C591.698 1311.21 594.645 1315.2 598.582 1318.02L916.238 1545.4C923.22 1550.4 932.405 1551.09 940.057 1547.19L1185.6 1422.25C1193.25 1418.35 1198.1 1410.52 1198.17 1401.93L1201.34 1011.3C1201.38 1006.46 1199.89 1001.73 1197.09 997.78L939.362 635.405C935.822 630.428 930.447 627.063 924.424 626.052L614.803 574.109Z" stroke="url(#paint5_linear_1222_301)" stroke-width="4"/>
<path opacity="0.101449" d="M660.211 555.185C650.366 553.016 640.255 557.511 635.27 566.274L481.182 837.132C478.157 842.449 477.375 848.752 479.009 854.647L596.615 1279.05C597.912 1283.73 600.658 1287.88 604.458 1290.9L907.389 1531.96C914.098 1537.3 923.22 1538.46 931.054 1534.98L1181.26 1423.74C1189.1 1420.25 1194.34 1412.7 1194.88 1404.14L1218.84 1017.75C1219.14 1012.9 1217.9 1008.08 1215.3 1003.98L978.993 632.356C975.71 627.194 970.506 623.552 964.533 622.236L660.211 555.185Z" stroke="url(#paint6_linear_1222_301)" stroke-width="4"/>
<path opacity="0.115942" d="M705.694 537.796C696 535.139 685.702 539.086 680.267 547.541L513.017 807.715C509.704 812.869 508.584 819.132 509.905 825.114L603.985 1250.95C605.037 1255.71 607.572 1260.01 611.226 1263.24L898.877 1517.06C905.296 1522.72 914.331 1524.36 922.326 1521.29L1176.44 1423.9C1184.43 1420.84 1190.07 1413.58 1191.06 1405.08L1235.38 1024.02C1235.94 1019.18 1234.96 1014.29 1232.56 1010.05L1017.93 630.408C1014.92 625.075 1009.9 621.165 1003.99 619.546L705.694 537.796Z" stroke="url(#paint7_linear_1222_301)" stroke-width="4"/>
<path opacity="0.130435" d="M751.167 521.931C741.647 518.797 731.195 522.187 725.328 530.312L545.607 779.172C542.015 784.147 540.56 790.352 541.565 796.405L612.293 1222.39C613.094 1227.22 615.412 1231.66 618.909 1235.08L890.778 1500.74C896.893 1506.71 905.817 1508.8 913.949 1506.17L1171.21 1422.73C1179.34 1420.09 1185.34 1413.16 1186.78 1404.73L1250.98 1030.07C1251.8 1025.25 1251.07 1020.3 1248.89 1015.92L1056.13 629.514C1053.39 624.023 1048.57 619.854 1042.74 617.934L751.167 521.931Z" stroke="url(#paint8_linear_1222_301)" stroke-width="4"/>
<path opacity="0.144928" d="M766.343 527.164C757.023 523.564 746.444 526.392 740.165 534.164L548.7 771.126C544.837 775.907 543.048 782.035 543.733 788.144L591.356 1213.01C591.902 1217.89 593.993 1222.46 597.323 1226.07L852.967 1502.62C858.761 1508.88 867.551 1511.43 875.798 1509.22L1135.45 1439.8C1143.69 1437.59 1150.04 1431 1151.93 1422.68L1235.44 1055.44C1236.53 1050.66 1236.06 1045.65 1234.1 1041.16L1063.32 649.215C1060.86 643.58 1056.26 639.162 1050.52 636.947L766.343 527.164Z" stroke="url(#paint9_linear_1222_301)" stroke-width="4"/>
<path opacity="0.15942" d="M811.546 514.293C802.448 510.239 791.773 512.502 785.102 519.899L582.641 744.423C578.519 748.995 576.401 755.029 576.762 761.175L601.593 1183.69C601.882 1188.6 603.739 1193.3 606.892 1197.07L845.921 1483.55C851.381 1490.1 860.013 1493.09 868.351 1491.32L1129.63 1435.93C1137.97 1434.16 1144.65 1427.92 1146.98 1419.73L1249.2 1060.9C1250.55 1056.17 1250.35 1051.13 1248.62 1046.52L1099.87 650.274C1097.7 644.511 1093.32 639.854 1087.7 637.349L811.546 514.293Z" stroke="url(#paint10_linear_1222_301)" stroke-width="4"/>
<path opacity="0.173913" d="M856.493 502.884C847.638 498.39 836.899 500.085 829.859 507.088L617.178 718.68C612.806 723.029 610.364 728.951 610.399 735.117L612.816 1154.06C612.844 1159 614.462 1163.8 617.43 1167.75L839.507 1463.19C844.621 1469.99 853.072 1473.41 861.478 1472.08L1123.64 1430.7C1132.05 1429.38 1139.03 1423.52 1141.8 1415.47L1262.09 1066C1263.69 1061.33 1263.76 1056.26 1262.26 1051.55L1135.52 652.23C1133.65 646.353 1129.51 641.471 1124.01 638.68L856.493 502.884Z" stroke="url(#paint11_linear_1222_301)" stroke-width="4"/>
<path opacity="0.188406" d="M901.105 492.91C892.516 487.99 881.743 489.117 874.358 495.707L652.249 693.916C647.641 698.029 644.88 703.823 644.589 709.993L625.033 1124.2C624.799 1129.15 626.171 1134.04 628.945 1138.15L833.794 1441.56C838.548 1448.6 846.798 1452.45 855.249 1451.56L1117.55 1424.14C1126 1423.25 1133.27 1417.78 1136.47 1409.91L1274.12 1070.68C1275.98 1066.09 1276.31 1061.02 1275.06 1056.22L1170.23 655.026C1168.67 649.049 1164.77 643.952 1159.41 640.882L901.105 492.91Z" stroke="url(#paint12_linear_1222_301)" stroke-width="4"/>
<path opacity="0.202899" d="M945.306 484.337C937.004 479.007 926.227 479.566 918.52 485.727L687.8 670.154C682.967 674.017 679.894 679.664 679.276 685.82L638.251 1094.14C637.754 1099.09 638.875 1104.07 641.446 1108.33L828.844 1418.73C833.228 1425.99 841.254 1430.25 849.725 1429.81L1111.42 1416.23C1119.9 1415.79 1127.44 1410.72 1131.05 1403.05L1285.32 1074.92C1287.44 1070.42 1288.04 1065.35 1287.03 1060.48L1203.97 658.599C1202.72 652.541 1199.08 647.242 1193.87 643.9L945.306 484.337Z" stroke="url(#paint13_linear_1222_301)" stroke-width="4"/>
<path opacity="0.217391" d="M958.822 496.718C950.825 490.996 940.075 490.99 932.072 496.704L693.568 666.998C688.524 670.599 685.147 676.083 684.202 682.208L622.272 1083.54C621.511 1088.48 622.375 1093.53 624.736 1097.92L794.516 1414.33C798.52 1421.79 806.301 1426.45 814.77 1426.45L1075.14 1426.59C1083.61 1426.6 1091.4 1421.95 1095.41 1414.49L1265.52 1098.26C1267.89 1093.87 1268.76 1088.82 1268 1083.88L1206.5 682.484C1205.56 676.358 1202.19 670.87 1197.15 667.264L958.822 496.718Z" stroke="url(#paint14_linear_1222_301)" stroke-width="4"/>
<path opacity="0.231884" d="M1001.99 490.832C994.314 484.735 983.62 484.169 975.347 489.422L729.902 645.278C724.661 648.606 720.988 653.911 719.718 659.988L637.499 1053.28C636.474 1058.18 637.079 1063.29 639.222 1067.82L791.27 1389.25C794.886 1396.89 802.403 1401.93 810.846 1402.38L1069.18 1416.05C1077.62 1416.5 1085.63 1412.28 1090.03 1405.06L1275.17 1101.48C1277.77 1097.21 1278.92 1092.19 1278.41 1087.21L1238.18 687.434C1237.56 681.257 1234.46 675.593 1229.6 671.731L1001.99 490.832Z" stroke="url(#paint15_linear_1222_301)" stroke-width="4"/>
<path opacity="0.246377" d="M1044.53 486.225C1037.2 479.77 1026.59 478.65 1018.07 483.43L766.54 624.594C761.117 627.638 757.158 632.748 755.565 638.759L653.729 1022.99C652.44 1027.86 652.782 1033.01 654.7 1037.66L788.959 1363.12C792.178 1370.93 799.411 1376.34 807.805 1377.23L1063.4 1404.23C1071.8 1405.11 1080 1401.33 1084.78 1394.37L1284.08 1104.14C1286.93 1100 1288.34 1095.03 1288.09 1090.01L1268.79 692.975C1268.49 686.763 1265.68 680.939 1261.01 676.829L1044.53 486.225Z" stroke="url(#paint16_linear_1222_301)" stroke-width="4"/>
<path opacity="0.26087" d="M1086.38 482.848C1079.41 476.057 1068.92 474.389 1060.19 478.684L803.425 604.953C797.835 607.702 793.6 612.601 791.687 618.53L670.956 992.743C669.405 997.549 669.479 1002.73 671.166 1007.49L787.631 1336.03C790.447 1343.97 797.378 1349.74 805.699 1351.06L1057.88 1391.14C1066.2 1392.46 1074.58 1389.13 1079.72 1382.45L1292.3 1106.2C1295.38 1102.2 1297.05 1097.3 1297.07 1092.25L1298.3 699.044C1298.32 692.814 1295.81 686.843 1291.35 682.497L1086.38 482.848Z" stroke="url(#paint17_linear_1222_301)" stroke-width="4"/>
<path opacity="0.275362" d="M1127.49 480.651C1120.9 473.542 1110.55 471.337 1101.62 475.137L840.5 586.355C834.758 588.8 830.257 593.474 828.029 599.304L689.168 962.582C687.358 967.316 687.164 972.517 688.614 977.374L787.331 1308.02C789.737 1316.08 796.351 1322.19 804.576 1323.94L1052.68 1376.81C1060.9 1378.56 1069.43 1375.69 1074.91 1369.31L1299.86 1107.63C1303.16 1103.79 1305.1 1098.96 1305.38 1093.9L1326.7 705.573C1327.04 699.342 1324.83 693.239 1320.59 688.665L1127.49 480.651Z" stroke="url(#paint18_linear_1222_301)" stroke-width="4"/>
<path opacity="0.289855" d="M1167.8 479.58C1161.59 472.176 1151.41 469.444 1142.33 472.741L877.705 568.801C871.828 570.934 867.073 575.369 864.535 581.082L708.357 932.564C706.29 937.214 705.825 942.418 707.032 947.362L788.102 1279.17C790.095 1287.33 796.372 1293.75 804.48 1295.93L1047.86 1361.28C1055.96 1363.46 1064.61 1361.04 1070.42 1354.98L1306.8 1108.41C1310.32 1104.73 1312.52 1100 1313.07 1094.94L1353.96 712.499C1354.62 706.282 1352.73 700.062 1348.71 695.272L1167.8 479.58Z" stroke="url(#paint19_linear_1222_301)" stroke-width="4"/>
<path opacity="0.304348" d="M1207.24 479.579C1201.43 471.9 1191.45 468.653 1182.24 471.441L914.984 552.287C908.989 554.101 903.993 558.28 901.15 563.861L728.505 902.74C726.186 907.292 725.448 912.488 726.409 917.506L789.979 1249.55C791.554 1257.78 797.481 1264.5 805.449 1267.1L1043.48 1344.58C1051.45 1347.17 1060.2 1345.22 1066.32 1339.5L1313.16 1108.5C1316.89 1105 1319.35 1100.37 1320.16 1095.32L1380.07 719.751C1381.06 713.566 1379.48 707.246 1375.7 702.251L1207.24 479.579Z" stroke="url(#paint20_linear_1222_301)" stroke-width="4"/>
<path opacity="0.318841" d="M1215.57 500.179C1210.18 492.248 1200.43 488.499 1191.11 490.772L922.08 556.396C915.984 557.883 910.76 561.796 907.619 567.228L719.395 892.754C716.828 897.195 715.818 902.367 716.527 907.448L762.793 1238.81C763.95 1247.09 769.513 1254.1 777.319 1257.1L1009.41 1346.33C1017.22 1349.33 1026.04 1347.86 1032.45 1342.48L1288.78 1127.46C1292.71 1124.17 1295.43 1119.65 1296.5 1114.63L1374.83 746.854C1376.13 740.718 1374.88 734.313 1371.35 729.125L1215.57 500.179Z" stroke="url(#paint21_linear_1222_301)" stroke-width="4"/>
<path opacity="0.333333" d="M1253.15 502.135C1248.18 493.975 1238.68 489.739 1229.29 491.494L959.341 541.937C953.162 543.092 947.725 546.725 944.294 551.992L741.409 863.473C738.598 867.789 737.317 872.925 737.772 878.056L766.98 1207.85C767.716 1216.16 772.899 1223.42 780.523 1226.82L1006.1 1327.4C1013.73 1330.8 1022.59 1329.8 1029.27 1324.79L1294.11 1126.1C1298.23 1123.01 1301.19 1118.63 1302.52 1113.65L1398.62 754.56C1400.25 748.487 1399.32 742.014 1396.05 736.646L1253.15 502.135Z" stroke="url(#paint22_linear_1222_301)" stroke-width="4"/>
<path opacity="0.347826" d="M1289.73 504.976C1285.19 496.61 1275.97 491.903 1266.53 493.139L996.512 528.488C990.268 529.305 984.63 532.648 980.918 537.735L764.323 834.538C761.274 838.717 759.723 843.801 759.919 848.97L772.358 1176.32C772.675 1184.65 777.469 1192.15 784.89 1195.94L1003.41 1307.42C1010.83 1311.21 1019.72 1310.69 1026.64 1306.06L1298.98 1123.99C1303.28 1121.12 1306.49 1116.88 1308.08 1111.96L1421.26 762.392C1423.2 756.4 1422.6 749.874 1419.59 744.339L1289.73 504.976Z" stroke="url(#paint23_linear_1222_301)" stroke-width="4"/>
<path opacity="0.362319" d="M1325.27 508.637C1321.17 500.087 1312.25 494.928 1302.79 495.644L1033.54 516.032C1027.25 516.509 1021.43 519.549 1017.44 524.441L788.113 805.995C784.833 810.022 783.012 815.042 782.948 820.236L778.95 1144.31C778.848 1152.62 783.24 1160.34 790.438 1164.5L1001.38 1286.44C1008.58 1290.6 1017.46 1290.55 1024.62 1286.31L1303.44 1121.11C1307.91 1118.46 1311.35 1114.38 1313.21 1109.53L1442.73 770.282C1444.98 764.387 1444.71 757.827 1441.99 752.137L1325.27 508.637Z" stroke="url(#paint24_linear_1222_301)" stroke-width="4"/>
<path opacity="0.376812" d="M1359.74 513.05C1356.09 504.341 1347.49 498.748 1338.05 498.946L1070.37 504.552C1064.05 504.684 1058.07 507.412 1053.82 512.095L812.748 777.888C809.243 781.753 807.157 786.695 806.83 791.902L786.772 1111.88C786.253 1120.16 790.234 1128.08 797.19 1132.6L1000.07 1264.5C1007.02 1269.02 1015.87 1269.45 1023.23 1265.61L1307.54 1117.44C1312.17 1115.03 1315.84 1111.12 1317.95 1106.35L1463.06 778.165C1465.61 772.383 1465.68 765.804 1463.23 759.974L1359.74 513.05Z" stroke="url(#paint25_linear_1222_301)" stroke-width="4"/>
<path opacity="0.391304" d="M1393.11 518.146C1389.91 509.302 1381.65 503.295 1372.26 502.978L1106.96 494.026C1100.63 493.813 1094.49 496.219 1089.99 500.678L838.201 750.264C834.479 753.953 832.128 758.803 831.538 764.009L795.832 1079.1C794.9 1087.33 798.461 1095.43 805.157 1100.3L999.506 1241.65C1006.2 1246.52 1015 1247.42 1022.54 1244L1311.32 1112.98C1316.09 1110.81 1319.98 1107.08 1322.34 1102.4L1482.24 785.977C1485.09 780.324 1485.49 773.743 1483.34 767.786L1483.34 767.785L1393.11 518.146Z" stroke="url(#paint26_linear_1222_301)" stroke-width="4"/>
<defs>
<linearGradient id="paint0_linear_1222_301" x1="403.215" y1="671.834" x2="1189.31" y2="1545.81" gradientUnits="userSpaceOnUse">
<stop stop-color="#00F0FF"/>
<stop offset="1" stop-color="#00F0FF"/>
</linearGradient>
<linearGradient id="paint1_linear_1222_301" x1="447.047" y1="644.285" x2="1179.8" y2="1550.13" gradientUnits="userSpaceOnUse">
<stop stop-color="#00F0FF"/>
<stop offset="1" stop-color="#00F0FF"/>
</linearGradient>
<linearGradient id="paint2_linear_1222_301" x1="491.44" y1="618.262" x2="1169.68" y2="1552.82" gradientUnits="userSpaceOnUse">
<stop stop-color="#00F0FF"/>
<stop offset="1" stop-color="#00F0FF"/>
</linearGradient>
<linearGradient id="paint3_linear_1222_301" x1="536.305" y1="593.781" x2="1159.06" y2="1553.85" gradientUnits="userSpaceOnUse">
<stop stop-color="#00F0FF"/>
<stop offset="1" stop-color="#00F0FF"/>
</linearGradient>
<linearGradient id="paint4_linear_1222_301" x1="581.554" y1="570.854" x2="1148.03" y2="1553.21" gradientUnits="userSpaceOnUse">
<stop stop-color="#00F0FF"/>
<stop offset="1" stop-color="#00F0FF"/>
</linearGradient>
<linearGradient id="paint5_linear_1222_301" x1="596.894" y1="569.076" x2="1106.48" y2="1570.49" gradientUnits="userSpaceOnUse">
<stop stop-color="#00F0FF"/>
<stop offset="1" stop-color="#00F0FF"/>
</linearGradient>
<linearGradient id="paint6_linear_1222_301" x1="642.645" y1="549.267" x2="1094.9" y2="1566.5" gradientUnits="userSpaceOnUse">
<stop stop-color="#00F0FF"/>
<stop offset="1" stop-color="#00F0FF"/>
</linearGradient>
<linearGradient id="paint7_linear_1222_301" x1="688.514" y1="531.015" x2="1083.2" y2="1560.83" gradientUnits="userSpaceOnUse">
<stop stop-color="#00F0FF"/>
<stop offset="1" stop-color="#00F0FF"/>
</linearGradient>
<linearGradient id="paint8_linear_1222_301" x1="734.416" y1="514.31" x2="1071.47" y2="1553.51" gradientUnits="userSpaceOnUse">
<stop stop-color="#00F0FF"/>
<stop offset="1" stop-color="#00F0FF"/>
</linearGradient>
<linearGradient id="paint9_linear_1222_301" x1="750.063" y1="518.731" x2="1029.58" y2="1564.12" gradientUnits="userSpaceOnUse">
<stop stop-color="#00F0FF"/>
<stop offset="1" stop-color="#00F0FF"/>
</linearGradient>
<linearGradient id="paint10_linear_1222_301" x1="795.776" y1="505.076" x2="1018.05" y2="1553.51" gradientUnits="userSpaceOnUse">
<stop stop-color="#00F0FF"/>
<stop offset="1" stop-color="#00F0FF"/>
</linearGradient>
<linearGradient id="paint11_linear_1222_301" x1="841.271" y1="492.915" x2="1006.75" y2="1541.3" gradientUnits="userSpaceOnUse">
<stop stop-color="#00F0FF"/>
<stop offset="1" stop-color="#00F0FF"/>
</linearGradient>
<linearGradient id="paint12_linear_1222_301" x1="886.467" y1="482.22" x2="995.774" y2="1527.51" gradientUnits="userSpaceOnUse">
<stop stop-color="#00F0FF"/>
<stop offset="1" stop-color="#00F0FF"/>
</linearGradient>
<linearGradient id="paint13_linear_1222_301" x1="931.287" y1="472.961" x2="985.2" y2="1512.18" gradientUnits="userSpaceOnUse">
<stop stop-color="#00F0FF"/>
<stop offset="1" stop-color="#00F0FF"/>
</linearGradient>
<linearGradient id="paint14_linear_1222_301" x1="945.453" y1="484.692" x2="944.91" y2="1514.93" gradientUnits="userSpaceOnUse">
<stop stop-color="#00F0FF"/>
<stop offset="1" stop-color="#00F0FF"/>
</linearGradient>
<linearGradient id="paint15_linear_1222_301" x1="989.298" y1="478.194" x2="935.385" y2="1496.63" gradientUnits="userSpaceOnUse">
<stop stop-color="#00F0FF"/>
<stop offset="1" stop-color="#00F0FF"/>
</linearGradient>
<linearGradient id="paint16_linear_1222_301" x1="1032.55" y1="473.012" x2="926.499" y2="1476.91" gradientUnits="userSpaceOnUse">
<stop stop-color="#00F0FF"/>
<stop offset="1" stop-color="#00F0FF"/>
</linearGradient>
<linearGradient id="paint17_linear_1222_301" x1="1075.14" y1="469.102" x2="918.323" y2="1455.83" gradientUnits="userSpaceOnUse">
<stop stop-color="#00F0FF"/>
<stop offset="1" stop-color="#00F0FF"/>
</linearGradient>
<linearGradient id="paint18_linear_1222_301" x1="1117.01" y1="466.413" x2="910.925" y2="1433.44" gradientUnits="userSpaceOnUse">
<stop stop-color="#00F0FF"/>
<stop offset="1" stop-color="#00F0FF"/>
</linearGradient>
<linearGradient id="paint19_linear_1222_301" x1="1158.09" y1="464.892" x2="904.37" y2="1409.78" gradientUnits="userSpaceOnUse">
<stop stop-color="#00F0FF"/>
<stop offset="1" stop-color="#00F0FF"/>
</linearGradient>
<linearGradient id="paint20_linear_1222_301" x1="1198.33" y1="464.484" x2="898.718" y2="1384.94" gradientUnits="userSpaceOnUse">
<stop stop-color="#00F0FF"/>
<stop offset="1" stop-color="#00F0FF"/>
</linearGradient>
<linearGradient id="paint21_linear_1222_301" x1="1207.47" y1="484.72" x2="863.825" y2="1378.55" gradientUnits="userSpaceOnUse">
<stop stop-color="#00F0FF"/>
<stop offset="1" stop-color="#00F0FF"/>
</linearGradient>
<linearGradient id="paint22_linear_1222_301" x1="1245.88" y1="486.359" x2="860.147" y2="1351.5" gradientUnits="userSpaceOnUse">
<stop stop-color="#00F0FF"/>
<stop offset="1" stop-color="#00F0FF"/>
</linearGradient>
<linearGradient id="paint23_linear_1222_301" x1="1283.3" y1="488.927" x2="857.531" y2="1323.45" gradientUnits="userSpaceOnUse">
<stop stop-color="#00F0FF"/>
<stop offset="1" stop-color="#00F0FF"/>
</linearGradient>
<linearGradient id="paint24_linear_1222_301" x1="1319.69" y1="492.359" x2="856.021" y2="1294.48" gradientUnits="userSpaceOnUse">
<stop stop-color="#00F0FF"/>
<stop offset="1" stop-color="#00F0FF"/>
</linearGradient>
<linearGradient id="paint25_linear_1222_301" x1="1355.01" y1="496.59" x2="855.656" y2="1264.64" gradientUnits="userSpaceOnUse">
<stop stop-color="#00F0FF"/>
<stop offset="1" stop-color="#00F0FF"/>
</linearGradient>
<linearGradient id="paint26_linear_1222_301" x1="1389.24" y1="501.549" x2="856.472" y2="1234.03" gradientUnits="userSpaceOnUse">
<stop stop-color="#00F0FF"/>
<stop offset="1" stop-color="#00F0FF"/>
</linearGradient>
</defs>
</svg>
